<svg height="512" viewBox="0 0 512 512" width="512" xmlns="http://www.w3.org/2000/svg"><g id="filled_outline" data-name="filled outline"><path d="m392 488h-320a32 32 0 0 1 -32-32v-304h384v304a32 32 0 0 1 -32 32z" fill="#ee9d0d"/><path d="m72 120h320a32 32 0 0 1 32 32v32a0 0 0 0 1 0 0h-352a32 32 0 0 1 -32-32 32 32 0 0 1 32-32z" fill="#d78e0c"/><path d="m448 280a24 24 0 0 0 24-24v112a24 24 0 0 1 -24 24h-72a56 56 0 0 1 -56-56 56 56 0 0 1 56-56z" fill="#7a4922"/><circle cx="376" cy="336" fill="#cdccc8" r="24"/><path d="m424 232h24a24 24 0 0 1 24 24 24 24 0 0 1 -24 24h-24a0 0 0 0 1 0 0v-48a0 0 0 0 1 0 0z" fill="#5b3719"/><path d="m144 152h280l-47.95-95.9a18 18 0 0 0 -24.15-8.05z" fill="#92d1f7"/><path d="m324.223 86.111h71.554v35.777h-71.554z" fill="#5ebef7" transform="matrix(.894 -.447 .447 .894 -8.504 171.976)"/><path d="m72 152h272l-47.831-95.662a18 18 0 0 0 -24.385-7.93z" fill="#91a666"/><path d="m136 152 112-56a27.01 27.01 0 0 0 35.686 10.237l4.314-2.237 24 48z" fill="#768753"/><path d="m376 304a32 32 0 1 0 32 32 32.036 32.036 0 0 0 -32-32zm0 48a16 16 0 1 1 16-16 16.019 16.019 0 0 1 -16 16z"/><path d="m448 224h-16v-72a39.676 39.676 0 0 0 -14.428-30.744l-34.367-68.735a26.03 26.03 0 0 0 -34.882-11.621l-40.745 20.367-4.254-8.507a26 26 0 0 0 -35.224-11.453l-136.337 70.693h-59.763a40.045 40.045 0 0 0 -40 40v304a40.045 40.045 0 0 0 40 40h320a40.045 40.045 0 0 0 40-40v-56h16a32.036 32.036 0 0 0 32-32v-112a32.036 32.036 0 0 0 -32-32zm0 16a16 16 0 0 1 0 32h-16v-32zm-58.733-139.578-49.689 24.845-8.845-17.689 49.689-24.845zm-40.323 43.578-2.211-4.422 49.689-24.845 14.634 29.267zm6.534-88.795a10.012 10.012 0 0 1 13.422 4.473l4.372 8.744-49.694 24.845-8.845-17.689zm-80.012.306a10 10 0 0 1 13.548 4.4l42.042 84.089h-14.112l-21.789-43.578a8 8 0 0 0 -10.838-3.522l-4.317 2.235a19.013 19.013 0 0 1 -25.115-7.2 8 8 0 0 0 -10.466-3.086l-110.307 55.151h-29.3zm23.59 88.489h-129.168l75.746-37.873a35.046 35.046 0 0 0 38.774 8.578zm-227.056-16h28.906l-32.589 16.9a8 8 0 0 0 3.683 15.1h344v16h-344a24 24 0 0 1 0-48zm344 328a24.027 24.027 0 0 1 -24 24h-320a24.027 24.027 0 0 1 -24-24v-8h8a8 8 0 0 0 0-16h-8v-192h8a8 8 0 0 0 0-16h-8v-40.022a39.788 39.788 0 0 0 24 8.022h344v80h-40a64 64 0 0 0 0 128h40zm32-72h-72a48 48 0 0 1 0-96h72a31.793 31.793 0 0 0 16-4.305v84.305a16.019 16.019 0 0 1 -16 16z"/><path d="m112 432h-24a8 8 0 0 0 0 16h24a8 8 0 0 0 0-16z"/><path d="m168 432h-24a8 8 0 0 0 0 16h24a8 8 0 0 0 0-16z"/><path d="m224 432h-24a8 8 0 0 0 0 16h24a8 8 0 0 0 0-16z"/><path d="m280 432h-24a8 8 0 0 0 0 16h24a8 8 0 0 0 0-16z"/><path d="m336 432h-24a8 8 0 0 0 0 16h24a8 8 0 0 0 0-16z"/><path d="m360 440a8 8 0 0 0 8 8h24a8 8 0 0 0 0-16h-24a8 8 0 0 0 -8 8z"/><path d="m112 224h-24a8 8 0 0 0 0 16h24a8 8 0 0 0 0-16z"/><path d="m168 224h-24a8 8 0 0 0 0 16h24a8 8 0 0 0 0-16z"/><path d="m224 224h-24a8 8 0 0 0 0 16h24a8 8 0 0 0 0-16z"/><path d="m280 224h-24a8 8 0 0 0 0 16h24a8 8 0 0 0 0-16z"/><path d="m312 240h24a8 8 0 0 0 0-16h-24a8 8 0 0 0 0 16z"/><path d="m368 240h24a8 8 0 0 0 0-16h-24a8 8 0 0 0 0 16z"/><path d="m120 40a8 8 0 0 0 8-8v-8a8 8 0 0 0 -16 0v8a8 8 0 0 0 8 8z"/><path d="m120 96a8 8 0 0 0 8-8v-8a8 8 0 0 0 -16 0v8a8 8 0 0 0 8 8z"/><path d="m88 64h8a8 8 0 0 0 0-16h-8a8 8 0 0 0 0 16z"/><path d="m136 56a8 8 0 0 0 8 8h8a8 8 0 0 0 0-16h-8a8 8 0 0 0 -8 8z"/><path d="m97.373 44.687a8 8 0 1 0 11.313-11.315l-5.657-5.656a8 8 0 1 0 -11.313 11.314z"/><path d="m136.971 84.284a8 8 0 1 0 11.313-11.314l-5.657-5.657a8 8 0 1 0 -11.313 11.315z"/><path d="m97.373 67.313-5.657 5.657a8 8 0 1 0 11.313 11.314l5.657-5.656a8 8 0 0 0 -11.313-11.315z"/><path d="m136.971 47.029a7.977 7.977 0 0 0 5.656-2.342l5.657-5.657a8 8 0 1 0 -11.313-11.314l-5.657 5.656a8 8 0 0 0 5.657 13.657z"/><path d="m448 96a8 8 0 0 0 8-8v-8a8 8 0 0 0 -16 0v8a8 8 0 0 0 8 8z"/><path d="m448 128a8 8 0 0 0 -8 8v8a8 8 0 0 0 16 0v-8a8 8 0 0 0 -8-8z"/><path d="m480 104h-8a8 8 0 0 0 0 16h8a8 8 0 0 0 0-16z"/><path d="m426.343 101.657a8 8 0 0 0 11.314-11.314l-6.628-6.627a8 8 0 1 0 -11.313 11.314z"/><path d="m458.343 133.657 6.628 6.627a8 8 0 1 0 11.313-11.314l-6.627-6.627a8 8 0 0 0 -11.314 11.314z"/><path d="m458.343 101.656a8 8 0 0 0 11.314 0l6.627-6.627a8 8 0 1 0 -11.313-11.314l-6.628 6.627a8 8 0 0 0 0 11.314z"/></g></svg>